<svg xmlns="http://www.w3.org/2000/svg" width="109.128" height="85.199" viewBox="0 0 109.128 85.199">
  <g id="Group_308" data-name="Group 308" transform="translate(604.299 -544)">
    <g id="Group_224" data-name="Group 224" transform="translate(-606.299 544)">
      <path id="FontAwsome_user-alt_" data-name="FontAwsome (user-alt)" d="M34.481,38.791a19.4,19.4,0,1,0-19.4-19.4A19.4,19.4,0,0,0,34.481,38.791Zm17.24,4.31H44.3a23.446,23.446,0,0,1-19.638,0H17.24A17.239,17.239,0,0,0,0,60.342V70.881a6.467,6.467,0,0,0,6.465,6.465H62.5a6.467,6.467,0,0,0,6.465-6.465V60.342A17.239,17.239,0,0,0,51.721,43.1Z" transform="translate(2 0)"/>
      <g id="Ellipse_39" data-name="Ellipse 39" transform="translate(56.687 30.758)" fill="#fff" stroke="#fff" stroke-width="6">
        <ellipse cx="24.221" cy="24.221" rx="24.221" ry="24.221" stroke="none"/>
        <ellipse cx="24.221" cy="24.221" rx="27.221" ry="27.221" fill="none"/>
      </g>
    </g>
    <path id="FontAwsome_question-circle_" data-name="FontAwsome (question-circle)" d="M58.313,33.157A25.157,25.157,0,1,1,33.157,8,25.155,25.155,0,0,1,58.313,33.157ZM33.832,16.318c-5.528,0-9.054,2.329-11.822,6.467a1.219,1.219,0,0,0,.275,1.649L25.8,27.1a1.217,1.217,0,0,0,1.69-.215c1.812-2.3,3.055-3.631,5.813-3.631,2.072,0,4.636,1.334,4.636,3.343,0,1.519-1.254,2.3-3.3,3.446-2.386,1.338-5.544,3-5.544,7.168v.406a1.217,1.217,0,0,0,1.217,1.217H36a1.217,1.217,0,0,0,1.217-1.217v-.135c0-2.887,8.438-3.007,8.438-10.82C45.652,20.781,39.549,16.318,33.832,16.318Zm-.675,25.157a4.666,4.666,0,1,0,4.666,4.666A4.671,4.671,0,0,0,33.157,41.475Z" transform="translate(-558.313 566.057)"/>
  </g>
</svg>
