<svg xmlns="http://www.w3.org/2000/svg" xmlns:xlink="http://www.w3.org/1999/xlink" width="1734.431" height="600.088" viewBox="0 0 1734.431 600.088">
  <defs>
    <clipPath id="clip-path">
      <rect x="212" y="115" width="98.37" height="133.211" fill="none"/>
    </clipPath>
  </defs>
  <g id="Group_256" data-name="Group 256" transform="translate(7803.371 -11527)">
    <g id="Group_207" data-name="Group 207" transform="translate(-399 442)">
      <path id="Path_323" data-name="Path 323" d="M-4174.42,10686.382c11.022,0,12.809-9.459,53.591,0s68.474,50.19,68.474,50.19,8.765,16.572,3.187,23.055-25.5,2.877-25.5,2.877-45.337-24.743-51.608,0-1.77,50.191,67.237,111.726c44.43,47.147,103.592,91.232,109.161,93.965,10.469,5.137,42.39,11.438,62.189,0s50.5-44.359,82.922-99.526,46.763-121.14,46.763-121.14,9.826-39.012,3.213-66.071-19.381-41.406-29.782-42.168,4.911-3.238-34.252,0-119.137,112.64-131.053,135.04-33.589,0-33.589,0-8.935-10.65,0-47.415c3.628-14.927,35.976-69.132,67.907-98.371,47.727-53.059,96.735-60.063,96.735-60.063s58.223-11.318,92.27,9.9,43.915,74.981,43.915,74.981v58.471s.945,73.732-56.6,180.191-148.445,157.729-148.445,157.729-24.563,6.569-41.562,0c-9.5-3.672-76.17-29.169-153.072-111.717-88.947-82.914-120.515-125.873-125.561-163.709s7-76.285,33.462-87.947" transform="translate(-3195.361 586.431)" fill="#ee3341"/>
      <circle id="Ellipse_32" data-name="Ellipse 32" cx="54.5" cy="54.5" r="54.5" transform="translate(-7277.361 11157.431)" fill="#ee3341"/>
    </g>
    <text id="special" transform="translate(-7238.579 12043.559)" font-size="161" font-family="MyriadPro-Regular, Myriad Pro"><tspan x="0" y="0">special</tspan></text>
    <text id="_.dk" data-name=".dk" transform="translate(-6270.94 12047.379)" font-size="161" font-family="MyriadPro-Regular, Myriad Pro"><tspan x="0" y="0">.dk</tspan></text>
    <text id="sport" transform="translate(-6763.849 12052.088)" fill="#e73644" font-size="220" font-family="Noteworthy-Bold, Noteworthy" font-weight="700"><tspan x="0" y="0">spo</tspan><tspan y="0" letter-spacing="-0.05em">r</tspan><tspan y="0">t</tspan></text>
    <text id="find" transform="translate(-7231.158 11899.92)" fill="#e73644" font-size="177" font-family="Noteworthy-Bold, Noteworthy" font-weight="700"><tspan x="0" y="0" letter-spacing="-0.02em">f</tspan><tspan y="0">ind</tspan></text>
    <g id="Path_445" data-name="Path 445" transform="translate(1184.421 507)" fill="#333">
      <path d="M -8870.01171875 11398.00390625 C -8870.0126953125 11398.00390625 -8870.01171875 11398.00390625 -8870.013671875 11398.00390625 C -8873.6884765625 11398.00390625 -8876.9423828125 11397.3583984375 -8879.68359375 11396.0849609375 C -8883.1572265625 11394.4716796875 -8885.7802734375 11391.90625 -8887.482421875 11388.4609375 C -8889.5888671875 11384.1953125 -8890.0458984375 11379.46484375 -8888.8408203125 11374.3984375 C -8887.958984375 11370.6943359375 -8886.1748046875 11366.8232421875 -8883.5380859375 11362.89453125 C -8879.244140625 11356.498046875 -8874.0703125 11352.0126953125 -8873.8525390625 11351.82421875 L -8873.6298828125 11351.6328125 L -8873.3857421875 11351.4677734375 L -8686.62890625 11225.5146484375 L -8682.033203125 11222.4150390625 L -8679.421875 11227.3056640625 L -8663.3525390625 11257.404296875 L -8661.26953125 11261.3056640625 L -8664.8876953125 11263.8486328125 L -8847.51953125 11392.24609375 L -8847.8740234375 11392.49609375 L -8848.2666015625 11392.6806640625 C -8848.728515625 11392.8974609375 -8859.7001953125 11398.00390625 -8870.01171875 11398.00390625 Z" stroke="none"/>
      <path d="M -8683.8330078125 11229.66015625 L -8870.58984375 11355.61328125 C -8870.58984375 11355.61328125 -8889.9111328125 11372.2509765625 -8882.9990234375 11386.2470703125 C -8876.087890625 11400.244140625 -8850.396484375 11388.15625 -8850.3955078125 11388.15625 L -8667.763671875 11259.7587890625 L -8683.8330078125 11229.66015625 M -8680.2333984375 11215.1708984375 L -8654.7763671875 11262.8525390625 L -8845.353515625 11396.8359375 L -8846.138671875 11397.205078125 C -8847.400390625 11397.798828125 -8858.7890625 11403.00390625 -8870.0126953125 11403.00390625 C -8883.8154296875 11403.00390625 -8889.69140625 11395.279296875 -8891.96484375 11390.6748046875 C -8902.0185546875 11370.318359375 -8879.693359375 11350.255859375 -8877.115234375 11348.03515625 L -8876.6689453125 11347.6513671875 L -8876.181640625 11347.322265625 L -8680.2333984375 11215.1708984375 Z" stroke="none" fill="#707070"/>
    </g>
    <g id="Path_446" data-name="Path 446" transform="translate(1184.421 507)" fill="#333">
      <path d="M -8662.0849609375 11249.2314453125 L -8664.6826171875 11244.5390625 L -8671.5791015625 11232.08203125 L -8673.7265625 11228.203125 L -8670.1328125 11225.607421875 L -8657.728515625 11216.646484375 L -8653.314453125 11213.45703125 L -8650.5126953125 11218.126953125 L -8642.8095703125 11230.9697265625 L -8640.3271484375 11235.1083984375 L -8644.375 11237.736328125 L -8657.5859375 11246.3115234375 L -8662.0849609375 11249.2314453125 Z" stroke="none"/>
      <path d="M -8654.80078125 11220.69921875 L -8667.205078125 11229.66015625 L -8660.30859375 11242.1171875 L -8647.09765625 11233.5419921875 L -8654.80078125 11220.69921875 M -8651.8271484375 11206.21484375 L -8633.5576171875 11236.6748046875 L -8663.861328125 11256.345703125 L -8680.248046875 11226.74609375 L -8651.8271484375 11206.21484375 Z" stroke="none" fill="#707070"/>
    </g>
    <ellipse id="Ellipse_35" data-name="Ellipse 35" cx="119.5" cy="123.5" rx="119.5" ry="123.5" transform="translate(-7477.579 11537)" fill="#fff" opacity="0.501"/>
    <g id="Ellipse_36" data-name="Ellipse 36" transform="translate(-7477.579 11537)" fill="none" stroke="#707070" stroke-width="10">
      <ellipse cx="119.5" cy="123.5" rx="119.5" ry="123.5" stroke="none"/>
      <ellipse cx="119.5" cy="123.5" rx="124.5" ry="128.5" fill="none"/>
    </g>
    <g id="Scroll_Group_19" data-name="Scroll Group 19" transform="translate(-7803.37 11593.895)" clip-path="url(#clip-path)" style="isolation: isolate">
      <g id="Group_211" data-name="Group 211" transform="translate(7404.37 -11151.895)">
        <path id="Path_323-2" data-name="Path 323" d="M-4174.42,10686.382c11.022,0,12.809-9.459,53.591,0s68.474,50.19,68.474,50.19,8.765,16.572,3.187,23.055-25.5,2.877-25.5,2.877-45.337-24.743-51.608,0-1.77,50.191,67.237,111.726c44.43,47.147,103.592,91.232,109.161,93.965,10.469,5.137,42.39,11.438,62.189,0s50.5-44.359,82.922-99.526,46.763-121.14,46.763-121.14,9.826-39.012,3.213-66.071-19.381-41.406-29.782-42.168,4.911-3.238-34.252,0-119.137,112.64-131.053,135.04-33.589,0-33.589,0-8.935-10.65,0-47.415c3.628-14.927,35.976-69.132,67.907-98.371,47.727-53.059,96.735-60.063,96.735-60.063s58.223-11.318,92.27,9.9,43.915,74.981,43.915,74.981v58.471s.945,73.732-56.6,180.191-148.445,157.729-148.445,157.729-24.563,6.569-41.562,0c-9.5-3.672-76.17-29.169-153.072-111.717-88.947-82.914-120.515-125.873-125.561-163.709s7-76.285,33.462-87.947" transform="translate(-3195.361 586.431)" fill="#ee3341"/>
        <circle id="Ellipse_32-2" data-name="Ellipse 32" cx="54.5" cy="54.5" r="54.5" transform="translate(-7277.361 11157.431)" fill="#ee3341"/>
      </g>
    </g>
  </g>
</svg>
